STARTFONT 2.1
COMMENT This font is derived from stroked fonts using BORLAND font tools.
COMMENT Distributing of this font is permitted provided that the original
COMMENT copyright notice is retained.
FONT -yenbut-fixed-medium-r-normal--13-130-75-75-p-65-tis620-0
SIZE 13 75 75
FONTBOUNDINGBOX 17 21 -8 -4
STARTPROPERTIES 12
PIXEL_SIZE 13
POINT_SIZE 130
RESOLUTION_X 75
RESOLUTION_Y 75
SPACING "P"
AVERAGE_WIDTH 65
MIN_SPACE 4
FONT_ASCENT 17
FONT_DESCENT 4
COPYRIGHT "Copyright (c) 1992 Voradesh Yenbut"
_XMBDFED_INFO "Edited with xmbdfed 3.8."
ENDPROPERTIES
CHARS 183
STARTCHAR C040
ENCODING 32
SWIDTH 664 0
DWIDTH 9 0
BBX 0 0 0 0
BITMAP
ENDCHAR
STARTCHAR 33
ENCODING 33
SWIDTH 664 0
DWIDTH 9 0
BBX 3 9 2 0
BITMAP
40
E0
E0
E0
E0
40
40
00
40
ENDCHAR
STARTCHAR 34
ENCODING 34
SWIDTH 664 0
DWIDTH 9 0
BBX 4 4 2 7
BITMAP
50
50
50
50
ENDCHAR
STARTCHAR 35
ENCODING 35
SWIDTH 664 0
DWIDTH 9 0
BBX 6 7 1 0
BITMAP
48
48
FC
48
FC
48
48
ENDCHAR
STARTCHAR 36
ENCODING 36
SWIDTH 664 0
DWIDTH 9 0
BBX 7 7 0 0
BITMAP
10
7C
90
7C
12
7C
10
ENDCHAR
STARTCHAR 37
ENCODING 37
SWIDTH 664 0
DWIDTH 9 0
BBX 7 7 0 0
BITMAP
C2
C4
08
10
20
46
86
ENDCHAR
STARTCHAR 38
ENCODING 38
SWIDTH 664 0
DWIDTH 9 0
BBX 7 7 1 0
BITMAP
20
50
20
64
94
88
76
ENDCHAR
STARTCHAR 39
ENCODING 39
SWIDTH 664 0
DWIDTH 9 0
BBX 4 4 2 7
BITMAP
30
10
10
20
ENDCHAR
STARTCHAR 40
ENCODING 40
SWIDTH 664 0
DWIDTH 9 0
BBX 3 9 2 0
BITMAP
20
40
80
80
80
80
80
40
20
ENDCHAR
STARTCHAR 41
ENCODING 41
SWIDTH 664 0
DWIDTH 9 0
BBX 3 9 3 0
BITMAP
80
40
20
20
20
20
20
40
80
ENDCHAR
STARTCHAR 42
ENCODING 42
SWIDTH 664 0
DWIDTH 9 0
BBX 5 5 1 2
BITMAP
88
50
F8
50
88
ENDCHAR
STARTCHAR 43
ENCODING 43
SWIDTH 664 0
DWIDTH 9 0
BBX 5 5 1 2
BITMAP
20
20
F8
20
20
ENDCHAR
STARTCHAR 44
ENCODING 44
SWIDTH 664 0
DWIDTH 9 0
BBX 2 4 1 -2
BITMAP
C0
C0
40
80
ENDCHAR
STARTCHAR 45
ENCODING 45
SWIDTH 664 0
DWIDTH 9 0
BBX 6 1 1 4
BITMAP
FC
ENDCHAR
STARTCHAR 46
ENCODING 46
SWIDTH 664 0
DWIDTH 9 0
BBX 2 2 1 0
BITMAP
C0
C0
ENDCHAR
STARTCHAR 47
ENCODING 47
SWIDTH 664 0
DWIDTH 9 0
BBX 6 9 1 0
BITMAP
04
08
08
10
20
20
40
40
80
ENDCHAR
STARTCHAR 48
ENCODING 48
SWIDTH 664 0
DWIDTH 9 0
BBX 6 9 1 0
BITMAP
78
84
84
8C
B4
C4
84
84
78
ENDCHAR
STARTCHAR 49
ENCODING 49
SWIDTH 664 0
DWIDTH 9 0
BBX 3 9 2 0
BITMAP
40
C0
40
40
40
40
40
40
E0
ENDCHAR
STARTCHAR 50
ENCODING 50
SWIDTH 664 0
DWIDTH 9 0
BBX 6 9 1 0
BITMAP
78
84
04
04
08
10
20
40
FC
ENDCHAR
STARTCHAR 51
ENCODING 51
SWIDTH 664 0
DWIDTH 9 0
BBX 6 9 1 0
BITMAP
78
84
04
04
38
04
04
84
78
ENDCHAR
STARTCHAR 52
ENCODING 52
SWIDTH 664 0
DWIDTH 9 0
BBX 7 9 0 0
BITMAP
04
0C
14
24
24
44
FE
04
04
ENDCHAR
STARTCHAR 53
ENCODING 53
SWIDTH 664 0
DWIDTH 9 0
BBX 6 9 1 0
BITMAP
FC
80
80
F8
84
04
04
84
78
ENDCHAR
STARTCHAR 54
ENCODING 54
SWIDTH 664 0
DWIDTH 9 0
BBX 6 9 1 0
BITMAP
38
40
80
80
F8
84
84
84
78
ENDCHAR
STARTCHAR 55
ENCODING 55
SWIDTH 664 0
DWIDTH 9 0
BBX 6 9 1 0
BITMAP
FC
84
04
08
08
10
20
20
40
ENDCHAR
STARTCHAR 56
ENCODING 56
SWIDTH 664 0
DWIDTH 9 0
BBX 6 9 1 0
BITMAP
78
84
84
84
78
84
84
84
78
ENDCHAR
STARTCHAR 57
ENCODING 57
SWIDTH 664 0
DWIDTH 9 0
BBX 6 9 1 0
BITMAP
78
84
84
84
7C
04
04
08
70
ENDCHAR
STARTCHAR 58
ENCODING 58
SWIDTH 664 0
DWIDTH 9 0
BBX 2 6 2 1
BITMAP
C0
C0
00
00
C0
C0
ENDCHAR
STARTCHAR 59
ENCODING 59
SWIDTH 664 0
DWIDTH 9 0
BBX 3 7 1 0
BITMAP
60
60
00
00
60
60
C0
ENDCHAR
STARTCHAR 60
ENCODING 60
SWIDTH 664 0
DWIDTH 9 0
BBX 5 9 1 0
BITMAP
08
10
20
40
80
40
20
10
08
ENDCHAR
STARTCHAR 61
ENCODING 61
SWIDTH 664 0
DWIDTH 9 0
BBX 5 3 1 3
BITMAP
F8
00
F8
ENDCHAR
STARTCHAR 62
ENCODING 62
SWIDTH 664 0
DWIDTH 9 0
BBX 5 9 1 0
BITMAP
80
40
20
10
08
10
20
40
80
ENDCHAR
STARTCHAR 63
ENCODING 63
SWIDTH 664 0
DWIDTH 9 0
BBX 6 9 1 0
BITMAP
78
84
84
64
08
10
10
00
10
ENDCHAR
STARTCHAR 64
ENCODING 64
SWIDTH 664 0
DWIDTH 9 0
BBX 6 8 0 0
BITMAP
38
44
94
AC
AC
98
40
3C
ENDCHAR
STARTCHAR 65
ENCODING 65
SWIDTH 664 0
DWIDTH 9 0
BBX 7 9 0 0
BITMAP
10
28
44
82
82
FE
82
82
82
ENDCHAR
STARTCHAR 66
ENCODING 66
SWIDTH 664 0
DWIDTH 9 0
BBX 7 9 0 0
BITMAP
FC
42
42
42
7C
42
42
42
FC
ENDCHAR
STARTCHAR 67
ENCODING 67
SWIDTH 664 0
DWIDTH 9 0
BBX 6 9 1 0
BITMAP
38
44
80
80
80
80
80
44
38
ENDCHAR
STARTCHAR 68
ENCODING 68
SWIDTH 664 0
DWIDTH 9 0
BBX 7 9 0 0
BITMAP
F8
44
42
42
42
42
42
44
F8
ENDCHAR
STARTCHAR 69
ENCODING 69
SWIDTH 664 0
DWIDTH 9 0
BBX 7 9 0 0
BITMAP
FE
42
40
48
78
48
40
42
FE
ENDCHAR
STARTCHAR 70
ENCODING 70
SWIDTH 664 0
DWIDTH 9 0
BBX 7 9 0 0
BITMAP
FE
42
40
48
78
48
40
40
E0
ENDCHAR
STARTCHAR 71
ENCODING 71
SWIDTH 664 0
DWIDTH 9 0
BBX 6 9 1 0
BITMAP
78
84
84
80
9C
84
84
8C
74
ENDCHAR
STARTCHAR 72
ENCODING 72
SWIDTH 664 0
DWIDTH 9 0
BBX 6 9 1 0
BITMAP
84
84
84
84
FC
84
84
84
84
ENDCHAR
STARTCHAR 73
ENCODING 73
SWIDTH 664 0
DWIDTH 9 0
BBX 3 9 2 0
BITMAP
E0
40
40
40
40
40
40
40
E0
ENDCHAR
STARTCHAR 74
ENCODING 74
SWIDTH 664 0
DWIDTH 9 0
BBX 6 9 1 0
BITMAP
1C
08
08
08
08
08
08
88
70
ENDCHAR
STARTCHAR 75
ENCODING 75
SWIDTH 664 0
DWIDTH 9 0
BBX 8 9 0 0
BITMAP
E7
44
48
50
60
50
48
44
E7
ENDCHAR
STARTCHAR 76
ENCODING 76
SWIDTH 664 0
DWIDTH 9 0
BBX 7 9 0 0
BITMAP
E0
40
40
40
40
40
40
42
FE
ENDCHAR
STARTCHAR 77
ENCODING 77
SWIDTH 664 0
DWIDTH 9 0
BBX 7 9 0 0
BITMAP
82
C6
AA
92
92
82
82
82
82
ENDCHAR
STARTCHAR 78
ENCODING 78
SWIDTH 664 0
DWIDTH 9 0
BBX 8 9 0 0
BITMAP
E7
62
62
52
4A
4A
46
46
E2
ENDCHAR
STARTCHAR 79
ENCODING 79
SWIDTH 664 0
DWIDTH 9 0
BBX 6 9 1 0
BITMAP
78
84
84
84
84
84
84
84
78
ENDCHAR
STARTCHAR 80
ENCODING 80
SWIDTH 664 0
DWIDTH 9 0
BBX 6 9 1 0
BITMAP
B8
44
44
44
78
40
40
40
E0
ENDCHAR
STARTCHAR 81
ENCODING 81
SWIDTH 664 0
DWIDTH 9 0
BBX 7 9 1 0
BITMAP
78
84
84
84
84
A4
94
8C
7E
ENDCHAR
STARTCHAR 82
ENCODING 82
SWIDTH 664 0
DWIDTH 9 0
BBX 7 9 0 0
BITMAP
FC
42
42
42
7C
50
48
44
E2
ENDCHAR
STARTCHAR 83
ENCODING 83
SWIDTH 664 0
DWIDTH 9 0
BBX 6 9 1 0
BITMAP
74
8C
84
80
78
04
84
84
F8
ENDCHAR
STARTCHAR 84
ENCODING 84
SWIDTH 664 0
DWIDTH 9 0
BBX 7 9 0 0
BITMAP
FE
92
10
10
10
10
10
10
38
ENDCHAR
STARTCHAR 85
ENCODING 85
SWIDTH 664 0
DWIDTH 9 0
BBX 8 9 0 0
BITMAP
E7
42
42
42
42
42
42
42
3C
ENDCHAR
STARTCHAR 86
ENCODING 86
SWIDTH 664 0
DWIDTH 9 0
BBX 7 9 0 0
BITMAP
82
82
82
82
44
44
28
28
10
ENDCHAR
STARTCHAR 87
ENCODING 87
SWIDTH 664 0
DWIDTH 9 0
BBX 7 9 0 0
BITMAP
82
82
82
82
82
92
AA
6C
44
ENDCHAR
STARTCHAR 88
ENCODING 88
SWIDTH 664 0
DWIDTH 9 0
BBX 7 9 0 0
BITMAP
82
82
44
28
10
28
44
82
82
ENDCHAR
STARTCHAR 89
ENCODING 89
SWIDTH 664 0
DWIDTH 9 0
BBX 7 9 0 0
BITMAP
C6
44
44
28
10
10
10
10
38
ENDCHAR
STARTCHAR 90
ENCODING 90
SWIDTH 664 0
DWIDTH 9 0
BBX 7 9 0 0
BITMAP
FE
82
04
08
10
20
40
82
FE
ENDCHAR
STARTCHAR 91
ENCODING 91
SWIDTH 664 0
DWIDTH 9 0
BBX 3 9 2 0
BITMAP
E0
80
80
80
80
80
80
80
E0
ENDCHAR
STARTCHAR 92
ENCODING 92
SWIDTH 664 0
DWIDTH 9 0
BBX 6 9 1 0
BITMAP
80
40
40
20
10
10
08
08
04
ENDCHAR
STARTCHAR 93
ENCODING 93
SWIDTH 664 0
DWIDTH 9 0
BBX 3 9 2 0
BITMAP
E0
20
20
20
20
20
20
20
E0
ENDCHAR
STARTCHAR 94
ENCODING 94
SWIDTH 664 0
DWIDTH 9 0
BBX 5 4 1 8
BITMAP
20
50
50
88
ENDCHAR
STARTCHAR 95
ENCODING 95
SWIDTH 664 0
DWIDTH 9 0
BBX 6 1 1 0
BITMAP
FC
ENDCHAR
STARTCHAR 96
ENCODING 96
SWIDTH 664 0
DWIDTH 9 0
BBX 3 4 2 7
BITMAP
60
40
40
20
ENDCHAR
STARTCHAR 97
ENCODING 97
SWIDTH 664 0
DWIDTH 9 0
BBX 7 7 0 0
BITMAP
78
04
04
7C
84
84
7A
ENDCHAR
STARTCHAR 98
ENCODING 98
SWIDTH 664 0
DWIDTH 9 0
BBX 6 11 1 0
BITMAP
C0
40
40
40
70
48
44
44
44
44
B8
ENDCHAR
STARTCHAR 99
ENCODING 99
SWIDTH 664 0
DWIDTH 9 0
BBX 6 7 1 0
BITMAP
78
84
80
80
80
84
78
ENDCHAR
STARTCHAR 100
ENCODING 100
SWIDTH 664 0
DWIDTH 9 0
BBX 6 11 1 0
BITMAP
18
08
08
08
38
48
88
88
88
88
74
ENDCHAR
STARTCHAR 101
ENCODING 101
SWIDTH 664 0
DWIDTH 9 0
BBX 6 7 1 0
BITMAP
78
84
FC
80
80
84
78
ENDCHAR
STARTCHAR 102
ENCODING 102
SWIDTH 664 0
DWIDTH 9 0
BBX 5 11 1 0
BITMAP
30
48
48
40
40
F0
40
40
40
40
E0
ENDCHAR
STARTCHAR 103
ENCODING 103
SWIDTH 664 0
DWIDTH 9 0
BBX 6 11 1 -4
BITMAP
74
88
88
88
88
88
78
08
08
88
70
ENDCHAR
STARTCHAR 104
ENCODING 104
SWIDTH 664 0
DWIDTH 9 0
BBX 6 11 1 0
BITMAP
C0
40
40
40
58
64
44
44
44
44
C4
ENDCHAR
STARTCHAR 105
ENCODING 105
SWIDTH 664 0
DWIDTH 9 0
BBX 3 9 2 0
BITMAP
40
00
C0
40
40
40
40
40
E0
ENDCHAR
STARTCHAR 106
ENCODING 106
SWIDTH 664 0
DWIDTH 9 0
BBX 4 10 1 -1
BITMAP
10
00
30
10
10
10
10
10
90
60
ENDCHAR
STARTCHAR 107
ENCODING 107
SWIDTH 664 0
DWIDTH 9 0
BBX 6 11 1 0
BITMAP
C0
40
40
40
44
48
50
68
48
44
44
ENDCHAR
STARTCHAR 108
ENCODING 108
SWIDTH 664 0
DWIDTH 9 0
BBX 3 11 1 0
BITMAP
C0
40
40
40
40
40
40
40
40
40
E0
ENDCHAR
STARTCHAR 109
ENCODING 109
SWIDTH 664 0
DWIDTH 9 0
BBX 7 7 0 0
BITMAP
EC
92
92
92
92
92
92
ENDCHAR
STARTCHAR 110
ENCODING 110
SWIDTH 664 0
DWIDTH 9 0
BBX 5 7 1 0
BITMAP
F0
88
88
88
88
88
88
ENDCHAR
STARTCHAR 111
ENCODING 111
SWIDTH 664 0
DWIDTH 9 0
BBX 6 7 1 0
BITMAP
78
84
84
84
84
84
78
ENDCHAR
STARTCHAR 112
ENCODING 112
SWIDTH 664 0
DWIDTH 9 0
BBX 6 10 1 -3
BITMAP
B8
44
44
44
44
44
78
40
40
E0
ENDCHAR
STARTCHAR 113
ENCODING 113
SWIDTH 664 0
DWIDTH 9 0
BBX 6 10 1 -3
BITMAP
74
88
88
88
88
88
78
08
08
1C
ENDCHAR
STARTCHAR 114
ENCODING 114
SWIDTH 664 0
DWIDTH 9 0
BBX 5 7 1 0
BITMAP
B0
48
48
40
40
40
E0
ENDCHAR
STARTCHAR 115
ENCODING 115
SWIDTH 664 0
DWIDTH 9 0
BBX 6 7 1 0
BITMAP
78
84
80
78
04
84
78
ENDCHAR
STARTCHAR 116
ENCODING 116
SWIDTH 664 0
DWIDTH 9 0
BBX 5 9 1 0
BITMAP
40
40
F0
40
40
40
40
48
30
ENDCHAR
STARTCHAR 117
ENCODING 117
SWIDTH 664 0
DWIDTH 9 0
BBX 6 7 1 0
BITMAP
88
88
88
88
88
88
74
ENDCHAR
STARTCHAR 118
ENCODING 118
SWIDTH 664 0
DWIDTH 9 0
BBX 5 7 1 0
BITMAP
88
88
88
50
50
20
20
ENDCHAR
STARTCHAR 119
ENCODING 119
SWIDTH 664 0
DWIDTH 9 0
BBX 7 7 0 0
BITMAP
82
82
82
92
AA
6C
44
ENDCHAR
STARTCHAR 120
ENCODING 120
SWIDTH 664 0
DWIDTH 9 0
BBX 7 7 0 0
BITMAP
82
44
28
10
28
44
82
ENDCHAR
STARTCHAR 121
ENCODING 121
SWIDTH 664 0
DWIDTH 9 0
BBX 6 10 1 -3
BITMAP
84
84
84
84
84
84
7C
04
84
78
ENDCHAR
STARTCHAR 122
ENCODING 122
SWIDTH 664 0
DWIDTH 9 0
BBX 6 7 1 0
BITMAP
FC
84
08
30
40
84
FC
ENDCHAR
STARTCHAR 123
ENCODING 123
SWIDTH 664 0
DWIDTH 9 0
BBX 3 9 2 0
BITMAP
20
40
40
40
80
40
40
40
20
ENDCHAR
STARTCHAR 124
ENCODING 124
SWIDTH 664 0
DWIDTH 9 0
BBX 1 8 3 0
BITMAP
80
80
80
80
80
80
80
80
ENDCHAR
STARTCHAR 125
ENCODING 125
SWIDTH 664 0
DWIDTH 9 0
BBX 3 9 2 0
BITMAP
80
40
40
40
20
40
40
40
80
ENDCHAR
STARTCHAR 126
ENCODING 126
SWIDTH 664 0
DWIDTH 9 0
BBX 5 4 1 7
BITMAP
40
A0
A8
10
ENDCHAR
STARTCHAR 161
ENCODING 161
SWIDTH 664 0
DWIDTH 9 0
BBX 6 8 1 0
BITMAP
78
84
44
84
84
84
84
84
ENDCHAR
STARTCHAR 162
ENCODING 162
SWIDTH 664 0
DWIDTH 9 0
BBX 5 8 1 0
BITMAP
48
A8
68
28
28
28
28
30
ENDCHAR
STARTCHAR 163
ENCODING 163
SWIDTH 664 0
DWIDTH 9 0
BBX 6 8 0 0
BITMAP
B4
D4
14
14
14
14
14
18
ENDCHAR
STARTCHAR 164
ENCODING 164
SWIDTH 664 0
DWIDTH 9 0
BBX 6 8 1 0
BITMAP
78
84
84
B4
B4
A4
A4
64
ENDCHAR
STARTCHAR 165
ENCODING 165
SWIDTH 664 0
DWIDTH 9 0
BBX 6 8 1 0
BITMAP
48
B4
84
B4
B4
A4
A4
64
ENDCHAR
STARTCHAR 166
ENCODING 166
SWIDTH 664 0
DWIDTH 9 0
BBX 7 8 0 0
BITMAP
B2
D2
32
22
72
AA
A6
62
ENDCHAR
STARTCHAR 167
ENCODING 167
SWIDTH 664 0
DWIDTH 9 0
BBX 5 8 1 0
BITMAP
10
28
18
08
88
48
28
18
ENDCHAR
STARTCHAR 168
ENCODING 168
SWIDTH 664 0
DWIDTH 9 0
BBX 7 8 0 0
BITMAP
7C
82
12
2A
1A
0A
0A
06
ENDCHAR
STARTCHAR 169
ENCODING 169
SWIDTH 664 0
DWIDTH 9 0
BBX 8 8 0 0
BITMAP
78
84
04
44
A4
6E
55
66
ENDCHAR
STARTCHAR 170
ENCODING 170
SWIDTH 664 0
DWIDTH 9 0
BBX 6 11 1 0
BITMAP
04
08
08
50
A8
68
28
28
28
28
30
ENDCHAR
STARTCHAR 171
ENCODING 171
SWIDTH 664 0
DWIDTH 9 0
BBX 7 11 0 0
BITMAP
02
04
04
A8
D4
14
14
14
14
14
18
ENDCHAR
STARTCHAR 172
ENCODING 172
SWIDTH 664 0
DWIDTH 9 0
BBX 7 8 0 0
BITMAP
72
8A
4A
8A
8A
9A
AE
DA
ENDCHAR
STARTCHAR 173
ENCODING 173
SWIDTH 664 0
DWIDTH 9 0
BBX 7 10 0 -2
BITMAP
72
8A
4A
8A
8A
CA
AA
4E
0A
06
ENDCHAR
STARTCHAR 174
ENCODING 174
SWIDTH 664 0
DWIDTH 9 0
BBX 7 11 0 -3
BITMAP
7C
82
E2
22
22
62
A2
42
26
5A
66
ENDCHAR
STARTCHAR 175
ENCODING 175
SWIDTH 664 0
DWIDTH 9 0
BBX 7 11 0 -3
BITMAP
7C
82
E2
22
22
62
A2
42
02
AA
56
ENDCHAR
STARTCHAR 176
ENCODING 176
SWIDTH 664 0
DWIDTH 9 0
BBX 6 11 1 -3
BITMAP
7C
80
F8
04
34
3C
0C
0C
00
54
AC
ENDCHAR
STARTCHAR 177
ENCODING 177
SWIDTH 664 0
DWIDTH 9 0
BBX 7 8 0 0
BITMAP
B6
DA
32
42
42
42
42
42
ENDCHAR
STARTCHAR 178
ENCODING 178
SWIDTH 664 0
DWIDTH 9 0
BBX 7 8 0 0
BITMAP
52
AA
8A
8A
AA
CE
D6
9A
ENDCHAR
STARTCHAR 179
ENCODING 179
SWIDTH 664 0
DWIDTH 9 0
BBX 8 8 0 0
BITMAP
64
94
54
94
94
96
9D
D6
ENDCHAR
STARTCHAR 180
ENCODING 180
SWIDTH 664 0
DWIDTH 9 0
BBX 7 8 0 0
BITMAP
7C
82
82
A2
D2
B2
92
E2
ENDCHAR
STARTCHAR 181
ENCODING 181
SWIDTH 664 0
DWIDTH 9 0
BBX 7 8 0 0
BITMAP
6C
92
82
A2
D2
B2
92
E2
ENDCHAR
STARTCHAR 182
ENCODING 182
SWIDTH 664 0
DWIDTH 9 0
BBX 6 8 1 0
BITMAP
78
84
44
84
84
C4
A4
44
ENDCHAR
STARTCHAR 183
ENCODING 183
SWIDTH 664 0
DWIDTH 9 0
BBX 7 8 0 0
BITMAP
44
AA
52
62
42
42
42
42
ENDCHAR
STARTCHAR 184
ENCODING 184
SWIDTH 664 0
DWIDTH 9 0
BBX 6 8 1 0
BITMAP
7C
A0
F8
24
24
24
24
3C
ENDCHAR
STARTCHAR 185
ENCODING 185
SWIDTH 664 0
DWIDTH 9 0
BBX 8 8 0 0
BITMAP
44
A4
64
24
24
2E
35
26
ENDCHAR
STARTCHAR 186
ENCODING 186
SWIDTH 664 0
DWIDTH 9 0
BBX 7 8 0 0
BITMAP
42
A2
62
22
22
22
22
7E
ENDCHAR
STARTCHAR 187
ENCODING 187
SWIDTH 664 0
DWIDTH 9 0
BBX 7 12 0 0
BITMAP
02
02
02
02
42
A2
62
22
22
22
22
3E
ENDCHAR
STARTCHAR 188
ENCODING 188
SWIDTH 664 0
DWIDTH 9 0
BBX 6 8 1 0
BITMAP
44
A4
C4
84
84
84
B4
CC
ENDCHAR
STARTCHAR 189
ENCODING 189
SWIDTH 664 0
DWIDTH 9 0
BBX 6 12 1 0
BITMAP
04
04
04
04
44
A4
C4
84
84
84
B4
CC
ENDCHAR
STARTCHAR 190
ENCODING 190
SWIDTH 664 0
DWIDTH 9 0
BBX 7 8 0 0
BITMAP
42
A2
62
22
2A
2A
36
22
ENDCHAR
STARTCHAR 191
ENCODING 191
SWIDTH 664 0
DWIDTH 9 0
BBX 7 12 0 0
BITMAP
02
02
02
02
42
A2
62
22
2A
2A
36
22
ENDCHAR
STARTCHAR 192
ENCODING 192
SWIDTH 664 0
DWIDTH 9 0
BBX 7 8 0 0
BITMAP
7C
82
C2
22
22
62
A2
42
ENDCHAR
STARTCHAR 193
ENCODING 193
SWIDTH 664 0
DWIDTH 9 0
BBX 7 8 0 0
BITMAP
42
A2
62
22
22
7A
A6
62
ENDCHAR
STARTCHAR 194
ENCODING 194
SWIDTH 664 0
DWIDTH 9 0
BBX 6 8 1 0
BITMAP
44
A4
C4
84
44
84
84
FC
ENDCHAR
STARTCHAR 195
ENCODING 195
SWIDTH 664 0
DWIDTH 9 0
BBX 6 8 1 0
BITMAP
7C
80
F8
04
04
0C
14
08
ENDCHAR
STARTCHAR 196
ENCODING 196
SWIDTH 664 0
DWIDTH 9 0
BBX 6 11 1 -3
BITMAP
78
84
44
84
84
C4
A4
44
04
04
04
ENDCHAR
STARTCHAR 197
ENCODING 197
SWIDTH 664 0
DWIDTH 9 0
BBX 7 8 0 0
BITMAP
7C
82
02
3A
46
62
52
22
ENDCHAR
STARTCHAR 198
ENCODING 198
SWIDTH 664 0
DWIDTH 9 0
BBX 7 11 0 -3
BITMAP
7C
82
E2
22
22
62
A2
42
02
02
02
ENDCHAR
STARTCHAR 199
ENCODING 199
SWIDTH 664 0
DWIDTH 9 0
BBX 6 8 1 0
BITMAP
78
84
04
04
04
0C
14
08
ENDCHAR
STARTCHAR 200
ENCODING 200
SWIDTH 664 0
DWIDTH 9 0
BBX 6 11 1 0
BITMAP
08
10
10
78
84
84
B4
B4
A4
A4
64
ENDCHAR
STARTCHAR 201
ENCODING 201
SWIDTH 664 0
DWIDTH 9 0
BBX 7 8 0 0
BITMAP
42
A2
62
2A
2E
22
22
7E
ENDCHAR
STARTCHAR 202
ENCODING 202
SWIDTH 664 0
DWIDTH 9 0
BBX 7 11 0 0
BITMAP
02
04
04
7C
82
02
3A
46
62
52
22
ENDCHAR
STARTCHAR 203
ENCODING 203
SWIDTH 664 0
DWIDTH 9 0
BBX 7 8 0 0
BITMAP
46
AA
44
4E
52
62
42
42
ENDCHAR
STARTCHAR 204
ENCODING 204
SWIDTH 664 0
DWIDTH 9 0
BBX 8 12 0 0
BITMAP
06
0A
06
07
42
A2
62
22
2A
2A
36
22
ENDCHAR
STARTCHAR 205
ENCODING 205
SWIDTH 664 0
DWIDTH 9 0
BBX 7 8 0 0
BITMAP
7C
82
02
22
52
62
42
3C
ENDCHAR
STARTCHAR 206
ENCODING 206
SWIDTH 664 0
DWIDTH 9 0
BBX 7 9 0 0
BITMAP
04
7C
8A
72
22
52
62
42
3C
ENDCHAR
STARTCHAR 207
ENCODING 207
SWIDTH 664 0
DWIDTH 9 0
BBX 5 7 1 0
BITMAP
C8
98
68
08
08
08
10
ENDCHAR
STARTCHAR 208
ENCODING 208
SWIDTH 664 0
DWIDTH 9 0
BBX 6 5 1 1
BITMAP
C4
78
00
C4
78
ENDCHAR
STARTCHAR 209
ENCODING 209
SWIDTH 0 0
DWIDTH 0 0
BBX 7 3 -6 10
BITMAP
40
82
7C
ENDCHAR
STARTCHAR 210
ENCODING 210
SWIDTH 664 0
DWIDTH 9 0
BBX 5 8 1 0
BITMAP
70
88
08
08
08
08
08
08
ENDCHAR
STARTCHAR 211
ENCODING 211
SWIDTH 664 0
DWIDTH 9 0
BBX 10 13 -4 0
BITMAP
6000
9000
6000
0000
0000
0380
0440
0040
0040
0040
0040
0040
0040
ENDCHAR
STARTCHAR 212
ENCODING 212
SWIDTH 0 0
DWIDTH 0 0
BBX 6 3 -7 10
BITMAP
70
88
FC
ENDCHAR
STARTCHAR 213
ENCODING 213
SWIDTH 0 0
DWIDTH 0 0
BBX 6 3 -7 10
BITMAP
74
8C
FC
ENDCHAR
STARTCHAR 214
ENCODING 214
SWIDTH 0 0
DWIDTH 0 0
BBX 7 3 -8 10
BITMAP
74
8A
FC
ENDCHAR
STARTCHAR 215
ENCODING 215
SWIDTH 0 0
DWIDTH 0 0
BBX 7 3 -8 10
BITMAP
6A
9A
FE
ENDCHAR
STARTCHAR 216
ENCODING 216
SWIDTH 0 0
DWIDTH 0 0
BBX 2 3 -3 -4
BITMAP
C0
40
40
ENDCHAR
STARTCHAR 217
ENCODING 217
SWIDTH 0 0
DWIDTH 0 0
BBX 4 3 -4 -4
BITMAP
D0
50
70
ENDCHAR
STARTCHAR 218
ENCODING 218
SWIDTH 0 0
DWIDTH 0 0
BBX 3 3 -3 -4
BITMAP
40
A0
40
ENDCHAR
STARTCHAR 219
ENCODING 219
SWIDTH 0 0
DWIDTH 0 0
BBX 6 9 -6 8
BITMAP
C0
44
F8
00
00
40
84
48
78
ENDCHAR
STARTCHAR 223
ENCODING 223
SWIDTH 516 0
DWIDTH 7 0
BBX 7 11 0 -1
BITMAP
18
FC
5A
5A
5A
7C
5A
5A
5A
FC
18
ENDCHAR
STARTCHAR 224
ENCODING 224
SWIDTH 664 0
DWIDTH 9 0
BBX 3 8 3 0
BITMAP
80
80
80
80
80
C0
A0
40
ENDCHAR
STARTCHAR 225
ENCODING 225
SWIDTH 664 0
DWIDTH 9 0
BBX 7 8 1 0
BITMAP
88
88
88
88
88
CC
AA
44
ENDCHAR
STARTCHAR 226
ENCODING 226
SWIDTH 664 0
DWIDTH 9 0
BBX 8 13 0 0
BITMAP
3E
40
F8
04
04
04
04
04
04
04
06
05
02
ENDCHAR
STARTCHAR 227
ENCODING 227
SWIDTH 664 0
DWIDTH 9 0
BBX 8 13 0 0
BITMAP
78
84
94
54
74
04
04
04
04
04
06
05
02
ENDCHAR
STARTCHAR 228
ENCODING 228
SWIDTH 664 0
DWIDTH 9 0
BBX 8 13 0 0
BITMAP
8C
54
24
04
04
04
04
04
04
04
06
05
02
ENDCHAR
STARTCHAR 229
ENCODING 229
SWIDTH 664 0
DWIDTH 9 0
BBX 5 10 1 -2
BITMAP
70
88
08
08
08
08
08
08
08
08
ENDCHAR
STARTCHAR 230
ENCODING 230
SWIDTH 664 0
DWIDTH 9 0
BBX 7 9 0 -1
BITMAP
EC
92
02
02
02
02
02
02
02
ENDCHAR
STARTCHAR 231
ENCODING 231
SWIDTH 0 0
DWIDTH 0 0
BBX 7 4 -7 13
BITMAP
02
7C
90
6C
ENDCHAR
STARTCHAR 232
ENCODING 232
SWIDTH 0 0
DWIDTH 0 0
BBX 3 3 -5 14
BITMAP
20
20
20
ENDCHAR
STARTCHAR 233
ENCODING 233
SWIDTH 0 0
DWIDTH 0 0
BBX 6 3 -6 14
BITMAP
C4
48
F0
ENDCHAR
STARTCHAR 234
ENCODING 234
SWIDTH 0 0
DWIDTH 0 0
BBX 8 3 -7 14
BITMAP
6D
95
52
ENDCHAR
STARTCHAR 235
ENCODING 235
SWIDTH 0 0
DWIDTH 0 0
BBX 7 3 -5 14
BITMAP
08
3E
08
ENDCHAR
STARTCHAR 236
ENCODING 236
SWIDTH 0 0
DWIDTH 0 0
BBX 6 4 -4 13
BITMAP
0C
30
50
20
ENDCHAR
STARTCHAR 237
ENCODING 237
SWIDTH 0 0
DWIDTH 0 0
BBX 4 3 -4 10
BITMAP
60
90
60
ENDCHAR
STARTCHAR char238
ENCODING 238
SWIDTH 295 0
DWIDTH 4 0
BBX 4 4 -4 10
BITMAP
70
40
A0
C0
ENDCHAR
STARTCHAR char239
ENCODING 239
SWIDTH 516 0
DWIDTH 7 0
BBX 7 6 0 0
BITMAP
3C
42
5A
5A
42
3C
ENDCHAR
STARTCHAR 240
ENCODING 240
SWIDTH 664 0
DWIDTH 9 0
BBX 6 6 1 0
BITMAP
78
84
84
84
84
78
ENDCHAR
STARTCHAR 241
ENCODING 241
SWIDTH 664 0
DWIDTH 9 0
BBX 7 6 0 0
BITMAP
38
C6
82
A2
92
64
ENDCHAR
STARTCHAR 242
ENCODING 242
SWIDTH 664 0
DWIDTH 9 0
BBX 7 8 0 0
BITMAP
80
94
AA
AA
A2
B2
82
FC
ENDCHAR
STARTCHAR 243
ENCODING 243
SWIDTH 664 0
DWIDTH 9 0
BBX 7 7 0 0
BITMAP
6C
AA
92
92
C2
A2
44
ENDCHAR
STARTCHAR 244
ENCODING 244
SWIDTH 664 0
DWIDTH 9 0
BBX 7 8 0 0
BITMAP
02
3C
40
80
98
90
88
7C
ENDCHAR
STARTCHAR 245
ENCODING 245
SWIDTH 664 0
DWIDTH 9 0
BBX 7 8 0 0
BITMAP
02
34
78
80
98
90
88
7C
ENDCHAR
STARTCHAR 246
ENCODING 246
SWIDTH 664 0
DWIDTH 9 0
BBX 7 9 0 0
BITMAP
80
40
38
04
02
22
52
62
3C
ENDCHAR
STARTCHAR 247
ENCODING 247
SWIDTH 664 0
DWIDTH 9 0
BBX 7 8 0 0
BITMAP
02
52
AA
AA
8A
CA
AC
48
ENDCHAR
STARTCHAR 248
ENCODING 248
SWIDTH 664 0
DWIDTH 9 0
BBX 7 8 0 0
BITMAP
02
04
78
80
86
96
92
6C
ENDCHAR
STARTCHAR 249
ENCODING 249
SWIDTH 664 0
DWIDTH 9 0
BBX 8 9 0 0
BITMAP
01
02
1C
74
92
88
A4
D2
60
ENDCHAR
STARTCHAR char250
ENCODING 250
SWIDTH 516 0
DWIDTH 7 0
BBX 7 7 0 0
BITMAP
CE
9A
6A
0A
0A
0A
14
ENDCHAR
STARTCHAR char251
ENCODING 251
SWIDTH 664 0
DWIDTH 9 0
BBX 9 8 0 0
BITMAP
4000
A000
A800
EA80
EB00
EC00
9000
6000
ENDCHAR
ENDFONT
